<?xml version="1.0" encoding="UTF-8" standalone="no"?>
<!-- Created with Inkscape (http://www.inkscape.org/) -->

<svg
   xmlns:dc="http://purl.org/dc/elements/1.1/"
   xmlns:cc="http://creativecommons.org/ns#"
   xmlns:rdf="http://www.w3.org/1999/02/22-rdf-syntax-ns#"
   xmlns:svg="http://www.w3.org/2000/svg"
   xmlns="http://www.w3.org/2000/svg"
   xmlns:sodipodi="http://sodipodi.sourceforge.net/DTD/sodipodi-0.dtd"
   xmlns:inkscape="http://www.inkscape.org/namespaces/inkscape"
   width="200"
   height="200"
   viewBox="0 0 52.916666 52.916668"
   version="1.1"
   id="svg8"
   inkscape:version="0.92.3 (2405546, 2018-03-11)"
   sodipodi:docname="kongregate.svg">
  <defs
     id="defs2" />
  <sodipodi:namedview
     id="base"
     pagecolor="#0000ff"
     bordercolor="#666666"
     borderopacity="1.0"
     inkscape:pageopacity="0"
     inkscape:pageshadow="2"
     inkscape:zoom="2.8284271"
     inkscape:cx="67.834677"
     inkscape:cy="125.40206"
     inkscape:document-units="mm"
     inkscape:current-layer="layer1"
     showgrid="false"
     units="px"
     showguides="false"
     inkscape:window-width="1920"
     inkscape:window-height="1057"
     inkscape:window-x="-8"
     inkscape:window-y="-8"
     inkscape:window-maximized="1"
     inkscape:pagecheckerboard="true" />
  <metadata
     id="metadata5">
    <rdf:RDF>
      <cc:Work
         rdf:about="">
        <dc:format>image/svg+xml</dc:format>
        <dc:type
           rdf:resource="http://purl.org/dc/dcmitype/StillImage" />
        <dc:title></dc:title>
      </cc:Work>
    </rdf:RDF>
  </metadata>
  <g
     inkscape:label="Layer 1"
     inkscape:groupmode="layer"
     id="layer1"
     transform="translate(0,-244.08332)">
    <rect
       style="fill:#900000;fill-opacity:1;stroke-width:0.77757692"
       id="rect3720"
       width="52.916668"
       height="52.916668"
       x="0"
       y="244.08331" />
    <g
       aria-label="K"
       style="font-style:normal;font-weight:normal;font-size:48.93240356px;line-height:1.25;font-family:sans-serif;letter-spacing:0px;word-spacing:0px;fill:#000000;fill-opacity:1;stroke:none;stroke-width:1.22330999"
       id="text3715">
      <path
         d="m 28.293299,285.83304 h 14.87545 v -4.50178 l -3.376336,-1.02758 -0.293594,-0.24467 -8.7589,-11.40125 9.78648,-8.07384 0.489324,-0.1468 h 1.957297 v -5.18683 H 28.048637 v 4.50178 l 1.614769,0.48932 1.614769,0.48933 v 0.19572 l -10.373669,9.44396 v -9.73755 l 0.146797,-0.19573 h 3.082741 v -5.18683 H 9.7479176 v 4.50178 l 3.1316734,1.22331 0.09787,0.19573 v 19.27936 l -0.146797,0.19573 H 9.9436472 v 5.18684 H 24.182977 v -4.50178 l -3.180607,-1.07652 -0.09786,-0.19573 v -3.91459 l 4.306051,-3.81673 5.382565,8.12278 -0.146798,0.19573 h -2.153025 z"
         style="font-style:normal;font-variant:normal;font-weight:normal;font-stretch:normal;font-family:Freight;-inkscape-font-specification:Freight;fill:#ffffff;stroke-width:1.22330999"
         id="path3717" />
    </g>
    <path
       style="fill:#000000;fill-opacity:0;stroke-width:0.35355338"
       d="M -45.585251,38.570852 V 5.1600565 h 34.294679 34.294679 V 38.570852 71.981647 h -34.294679 -34.294679 z"
       id="path3722"
       inkscape:connector-curvature="0"
       transform="matrix(0.26458333,0,0,0.26458333,0,244.08332)" />
    <path
       style="fill:#ff00ff;fill-opacity:0;stroke-width:0.35355338"
       d="M -45.585251,38.570852 V 5.1600565 h 34.294679 34.294679 V 38.570852 71.981647 h -34.294679 -34.294679 z"
       id="path3724"
       inkscape:connector-curvature="0"
       transform="matrix(0.26458333,0,0,0.26458333,0,244.08332)" />
    <path
       style="fill:#ff00ff;fill-opacity:0;stroke-width:0.35355338"
       d="M -45.585251,38.570852 V 5.1600565 h 34.294679 34.294679 V 38.570852 71.981647 h -34.294679 -34.294679 z"
       id="path3726"
       inkscape:connector-curvature="0"
       transform="matrix(0.26458333,0,0,0.26458333,0,244.08332)" />
    <path
       style="fill:#ff00ff;fill-opacity:0;stroke-width:0.35355338"
       d="M -45.585251,38.570852 V 5.1600565 h 34.294679 34.294679 V 38.570852 71.981647 h -34.294679 -34.294679 z"
       id="path3728"
       inkscape:connector-curvature="0"
       transform="matrix(0.26458333,0,0,0.26458333,0,244.08332)" />
    <path
       style="fill:#ff00ff;fill-opacity:0;stroke-width:0.35355338"
       d="M -45.585251,38.570852 V 5.1600565 h 34.294679 34.294679 V 38.570852 71.981647 h -34.294679 -34.294679 z"
       id="path3730"
       inkscape:connector-curvature="0"
       transform="matrix(0.26458333,0,0,0.26458333,0,244.08332)" />
    <path
       style="fill:#ff00ff;fill-opacity:0;stroke-width:0.35355338"
       d="M -45.585251,38.570852 V 5.1600565 h 34.294679 34.294679 V 38.570852 71.981647 h -34.294679 -34.294679 z"
       id="path3732"
       inkscape:connector-curvature="0"
       transform="matrix(0.26458333,0,0,0.26458333,0,244.08332)" />
    <path
       style="fill:#ff00ff;fill-opacity:0;stroke-width:0.35355338"
       d="M -45.585251,38.570852 V 5.1600565 h 34.294679 34.294679 V 38.570852 71.981647 h -34.294679 -34.294679 z"
       id="path3734"
       inkscape:connector-curvature="0"
       transform="matrix(0.26458333,0,0,0.26458333,0,244.08332)" />
    <path
       style="fill:#ff00ff;fill-opacity:0;stroke-width:0.35355338"
       d="M -45.585251,38.570852 V 5.1600565 h 34.294679 34.294679 V 38.570852 71.981647 h -34.294679 -34.294679 z"
       id="path3736"
       inkscape:connector-curvature="0"
       transform="matrix(0.26458333,0,0,0.26458333,0,244.08332)" />
    <path
       style="fill:#ff00ff;fill-opacity:0;stroke-width:0.35355338"
       d="M -45.585251,38.570852 V 5.1600565 h 34.294679 34.294679 V 38.570852 71.981647 h -34.294679 -34.294679 z"
       id="path3738"
       inkscape:connector-curvature="0"
       transform="matrix(0.26458333,0,0,0.26458333,0,244.08332)" />
    <path
       style="fill:#ff00ff;fill-opacity:0;stroke-width:0.35355338"
       d="M -45.585251,38.570852 V 5.1600565 h 34.294679 34.294679 V 38.570852 71.981647 h -34.294679 -34.294679 z"
       id="path3740"
       inkscape:connector-curvature="0"
       transform="matrix(0.26458333,0,0,0.26458333,0,244.08332)" />
  </g>
</svg>
